<?xml version="1.0" encoding="UTF-8" standalone="no"?>
<svg
   inkscape:version="1.1.1 (3bf5ae0d25, 2021-09-20)"
   id="svg33462"
   version="1.1"
   viewBox="0 0 86.058662 53.851037"
   height="53.851036mm"
   width="86.058662mm"
   sodipodi:docname="ratiologomobile.svg"
   xmlns:inkscape="http://www.inkscape.org/namespaces/inkscape"
   xmlns:sodipodi="http://sodipodi.sourceforge.net/DTD/sodipodi-0.dtd"
   xmlns="http://www.w3.org/2000/svg"
   xmlns:svg="http://www.w3.org/2000/svg"
   xmlns:rdf="http://www.w3.org/1999/02/22-rdf-syntax-ns#"
   xmlns:cc="http://creativecommons.org/ns#"
   xmlns:dc="http://purl.org/dc/elements/1.1/">
  <defs
     id="defs33456" />
  <sodipodi:namedview
     showgrid="false"
     inkscape:document-rotation="0"
     inkscape:current-layer="layer1"
     inkscape:document-units="mm"
     inkscape:cy="207.58635"
     inkscape:cx="434.87067"
     inkscape:zoom="0.98994949"
     inkscape:pageshadow="2"
     inkscape:pageopacity="0.0"
     borderopacity="1.0"
     bordercolor="#666666"
     pagecolor="#ffffff"
     id="base"
     inkscape:pagecheckerboard="0"
     fit-margin-top="0"
     fit-margin-left="0"
     fit-margin-right="0"
     fit-margin-bottom="0"
     inkscape:showpageshadow="false"
     showborder="false"
     inkscape:window-width="1920"
     inkscape:window-height="1017"
     inkscape:window-x="-8"
     inkscape:window-y="-8"
     inkscape:window-maximized="1" />
  <metadata
     id="metadata33459">
    <rdf:RDF>
      <cc:Work
         rdf:about="">
        <dc:format>image/svg+xml</dc:format>
        <dc:type
           rdf:resource="http://purl.org/dc/dcmitype/StillImage" />
      </cc:Work>
    </rdf:RDF>
  </metadata>
  <g
     id="layer1"
     inkscape:groupmode="layer"
     inkscape:label="Layer 1"
     transform="translate(-272.74194,-259.0213)"
     style="display:inline">
    <path
       style="color:#000000;fill:#1c3ed3;fill-opacity:1;stroke:none;stroke-linecap:round;-inkscape-stroke:none"
       d="m 358.17514,292.01686 h -0.125 -20.17383 v 20.15234 h 20.29883 z m -0.25,0.25 v 19.65234 h -19.79883 v -19.65234 z"
       id="rect2973" />
    <path
       style="color:#000000;fill:#1c3ed3;fill-opacity:1;stroke:none;stroke-linecap:round;-inkscape-stroke:none"
       d="m 358.17514,259.63405 h -0.125 -32.41992 v 32.58398 h 32.54492 z m -0.25,0.25195 v 32.08008 H 325.88217 V 259.886 Z"
       id="rect2975" />
    <path
       style="color:#000000;fill:#1c3ed3;fill-opacity:1;stroke:none;stroke-linecap:round;-inkscape-stroke:none"
       d="m 325.88022,259.63405 h -0.12695 -52.44141 v 52.5371 h 52.56836 z m -0.25195,0.25195 v 52.03515 H 273.56381 V 259.886 Z"
       id="rect2977" />
    <path
       style="color:#000000;fill:#1c3ed3;fill-opacity:1;stroke:none;stroke-linecap:round;-inkscape-stroke:none"
       d="m 338.25327,299.77858 h -0.12696 -12.49414 v 12.38867 h 12.6211 z m -0.25391,0.2539 v 11.88086 h -12.11328 v -11.88086 z"
       id="rect2979" />
    <path
       style="color:#000000;fill:#1c3ed3;fill-opacity:1;stroke:none;stroke-linecap:round;-inkscape-stroke:none"
       d="m 333.47006,296.89381 v 0.12695 2.99414 h 4.78321 v -3.12109 z m 0.25391,0.25391 h 4.27734 v 2.61328 h -4.27734 z"
       id="rect2981" />
    <path
       style="color:#000000;fill:#1c3ed3;fill-opacity:1;stroke:none;stroke-linecap:round;-inkscape-stroke:none"
       d="m 333.47006,292.02076 v 0.12696 4.93164 h 4.78321 v -5.0586 z m 0.25391,0.25196 h 4.27734 v 4.55468 h -4.27734 z"
       id="rect2983" />
    <path
       style="color:#000000;fill:#1c3ed3;fill-opacity:1;stroke:none;stroke-linecap:round;-inkscape-stroke:none"
       d="m 325.64975,292.01881 v 0.125 7.86914 h 8.04688 v -7.99414 z m 0.25,0.25 h 7.54688 v 7.49414 h -7.54688 z"
       id="rect2985" />
    <path
       style="color:#000000;fill:#1c3ed3;fill-opacity:1;stroke:none;stroke-linecap:round;-inkscape-stroke:none"
       d="m 325.40756,259.03248 c -17.91789,0.4729 -29.13166,7.49223 -37.75,15.93555 -16.26426,15.93397 -14.88671,37.09375 -14.88672,37.09375 a 0.625,0.625 0 0 0 0.66407,0.58398 0.625,0.625 0 0 0 0.58203,-0.66406 c 0,0 -1.32854,-20.59869 14.51562,-36.12109 8.48043,-8.30821 19.3006,-15.11342 36.90821,-15.57813 19.20186,-0.50678 32.89586,17.2076 32.07422,31.9375 -0.68017,12.19348 -10.35465,19.4121 -19.55469,19.40235 -3.04347,-0.003 -5.99228,-1.54174 -8.16992,-3.78907 -2.17765,-2.24732 -3.55223,-5.18641 -3.53321,-7.85351 0.0147,-2.05119 0.5695,-3.93501 1.67188,-5.23633 1.10237,-1.30132 2.73949,-2.08399 5.18164,-1.93164 1.92486,0.12007 2.95478,1.14872 3.58984,2.19922 0.63507,1.0505 0.79102,2.06836 0.79102,2.06836 a 0.625,0.625 0 0 0 0.71094,0.52539 0.625,0.625 0 0 0 0.52539,-0.71094 c 0,0 -0.18243,-1.24798 -0.95704,-2.5293 -0.7746,-1.28132 -2.22319,-2.65168 -4.58203,-2.79882 -2.75553,-0.1719 -4.86392,0.77869 -6.21289,2.37109 -1.34896,1.5924 -1.95254,3.76395 -1.96875,6.0332 -0.0221,3.09461 1.516,6.2878 3.88672,8.73438 2.37072,2.44658 5.6047,4.1643 9.06445,4.16797 9.85624,0.0104 20.08926,-7.75634 20.80469,-20.58203 0.8674,-15.55007 -13.37421,-33.78517 -33.35547,-33.25782 z"
       id="path2987" />
  </g>
</svg>
